HIERARCHY
ROOT Root
{
  OFFSET 0.0 0.0 0.0
  CHANNELS 6 Xposition Yposition Zposition Zrotation Yrotation Xrotation
  JOINT Hips
  {
    OFFSET 0.0 100.0 0.0
    CHANNELS 6 Xposition Yposition Zposition Zrotation Yrotation Xrotation
    JOINT Spine1
    {
      OFFSET -0.013727 5.003763 -0.053727
      CHANNELS 3 Zrotation Yrotation Xrotation
      JOINT Spine2
      {
        OFFSET -0.0 7.125301 -0.029825
        CHANNELS 3 Zrotation Yrotation Xrotation
        JOINT Chest
        {
          OFFSET -1e-06 7.550063 -0.815971
          CHANNELS 3 Zrotation Yrotation Xrotation
          JOINT Neck1
          {
            OFFSET -0.181677 26.311295 -0.553348
            CHANNELS 3 Zrotation Yrotation Xrotation
            JOINT Neck2
            {
              OFFSET -3e-06 7.709397 2.302585
              CHANNELS 3 Zrotation Yrotation Xrotation
              JOINT Head
              {
                OFFSET -5e-06 6.128916 1.953709
                CHANNELS 3 Zrotation Yrotation Xrotation
                JOINT HeadEnd
                {
                  OFFSET 0.003598 16.065403 -1.835379
                  CHANNELS 3 Zrotation Yrotation Xrotation
                }
                JOINT Jaw
                {
                  OFFSET 0.002637 0.475592 3.094941
                  CHANNELS 3 Zrotation Yrotation Xrotation
                }
                JOINT LeftEye
                {
                  OFFSET 3.206381 5.380205 7.586883
                  CHANNELS 3 Zrotation Yrotation Xrotation
                }
                JOINT RightEye
                {
                  OFFSET -3.22244 5.361869 7.558234
                  CHANNELS 3 Zrotation Yrotation Xrotation
                }
              }
            }
          }
          JOINT LeftShoulder
          {
            OFFSET 1.621652 23.237164 5.113413
            CHANNELS 3 Zrotation Yrotation Xrotation
            JOINT LeftArm
            {
              OFFSET 14.919846 2e-06 -5.502326
              CHANNELS 3 Zrotation Yrotation Xrotation
              JOINT LeftForeArm
              {
                OFFSET 28.739307 0.0 -0.002588
                CHANNELS 3 Zrotation Yrotation Xrotation
                JOINT LeftHand
                {
                  OFFSET 27.093981 -1e-06 0.002609
                  CHANNELS 3 Zrotation Yrotation Xrotation
                  JOINT LeftHandThumb1
                  {
                    OFFSET 2.276482 -1.392045 3.191413
                    CHANNELS 3 Zrotation Yrotation Xrotation
                    JOINT LeftHandThumb2
                    {
                      OFFSET 4.012836 -1.828127 1.641654
                      CHANNELS 3 Zrotation Yrotation Xrotation
                      JOINT LeftHandThumb3
                      {
                        OFFSET 2.798515 0.0 -3e-06
                        CHANNELS 3 Zrotation Yrotation Xrotation
                        JOINT LeftHandThumbEnd
                        {
                          OFFSET 3.180793 -4e-06 4e-06
                          CHANNELS 3 Zrotation Yrotation Xrotation
                        }
                      }
                    }
                  }
                  JOINT LeftHandIndex1
                  {
                    OFFSET 3.247555 -0.531998 2.296169
                    CHANNELS 3 Zrotation Yrotation Xrotation
                    JOINT LeftHandIndex2
                    {
                      OFFSET 6.364578 0.01206 0.1786
                      CHANNELS 3 Zrotation Yrotation Xrotation
                      JOINT LeftHandIndex3
                      {
                        OFFSET 3.662364 0.0 0.0
                        CHANNELS 3 Zrotation Yrotation Xrotation
                        JOINT LeftHandIndex4
                        {
                          OFFSET 2.329242 4e-06 4e-06
                          CHANNELS 3 Zrotation Yrotation Xrotation
                          JOINT LeftHandIndexEnd
                          {
                            OFFSET 2.759615 -0.180537 -0.113024
                            CHANNELS 3 Zrotation Yrotation Xrotation
                          }
                        }
                      }
                    }
                  }
                  JOINT LeftHandMiddle1
                  {
                    OFFSET 3.163495 0.240981 1.000332
                    CHANNELS 3 Zrotation Yrotation Xrotation
                    JOINT LeftHandMiddle2
                    {
                      OFFSET 6.19078 -0.259278 -1.002548
                      CHANNELS 3 Zrotation Yrotation Xrotation
                      JOINT LeftHandMiddle3
                      {
                        OFFSET 4.35652 -4e-06 -1e-06
                        CHANNELS 3 Zrotation Yrotation Xrotation
                        JOINT LeftHandMiddle4
                        {
                          OFFSET 2.996877 -8e-06 0.0
                          CHANNELS 3 Zrotation Yrotation Xrotation
                          JOINT LeftHandMiddleEnd
                          {
                            OFFSET 2.304287 -0.294569 -0.031741
                            CHANNELS 3 Zrotation Yrotation Xrotation
                          }
                        }
                      }
                    }
                  }
                  JOINT LeftHandRing1
                  {
                    OFFSET 2.882643 -0.053652 -0.322543
                    CHANNELS 3 Zrotation Yrotation Xrotation
                    JOINT LeftHandRing2
                    {
                      OFFSET 5.854541 -0.486202 -1.373841
                      CHANNELS 3 Zrotation Yrotation Xrotation
                      JOINT LeftHandRing3
                      {
                        OFFSET 4.350578 0.0 3e-06
                        CHANNELS 3 Zrotation Yrotation Xrotation
                        JOINT LeftHandRing4
                        {
                          OFFSET 2.651321 7e-06 2e-06
                          CHANNELS 3 Zrotation Yrotation Xrotation
                          JOINT LeftHandRingEnd
                          {
                            OFFSET 1.936105 0.077687 -7.1e-05
                            CHANNELS 3 Zrotation Yrotation Xrotation
                          }
                        }
                      }
                    }
                  }
                  JOINT LeftHandPinky1
                  {
                    OFFSET 2.8655 -0.310005 -1.600378
                    CHANNELS 3 Zrotation Yrotation Xrotation
                    JOINT LeftHandPinky2
                    {
                      OFFSET 5.087849 -1.331141 -1.77123
                      CHANNELS 3 Zrotation Yrotation Xrotation
                      JOINT LeftHandPinky3
                      {
                        OFFSET 3.070974 4e-06 0.0
                        CHANNELS 3 Zrotation Yrotation Xrotation
                        JOINT LeftHandPinky4
                        {
                          OFFSET 1.549672 0.0 1e-06
                          CHANNELS 3 Zrotation Yrotation Xrotation
                          JOINT LeftHandPinkyEnd
                          {
                            OFFSET 1.944893 -0.157802 0.057219
                            CHANNELS 3 Zrotation Yrotation Xrotation
                          }
                        }
                      }
                    }
                  }
                }
              }
            }
          }
          JOINT RightShoulder
          {
            OFFSET -1.380118 23.180309 5.214158
            CHANNELS 3 Zrotation Yrotation Xrotation
            JOINT RightArm
            {
              OFFSET -15.037196 1.2e-05 -5.545604
              CHANNELS 3 Zrotation Yrotation Xrotation
              JOINT RightForeArm
              {
                OFFSET -28.736639 2e-06 -0.002597
                CHANNELS 3 Zrotation Yrotation Xrotation
                JOINT RightHand
                {
                  OFFSET -27.133619 -0.0 0.002613
                  CHANNELS 3 Zrotation Yrotation Xrotation
                  JOINT RightHandThumb1
                  {
                    OFFSET -2.274032 -1.383988 3.163127
                    CHANNELS 3 Zrotation Yrotation Xrotation
                    JOINT RightHandThumb2
                    {
                      OFFSET -4.011429 -1.827466 1.640914
                      CHANNELS 3 Zrotation Yrotation Xrotation
                      JOINT RightHandThumb3
                      {
                        OFFSET -2.794935 -4e-06 -3e-06
                        CHANNELS 3 Zrotation Yrotation Xrotation
                        JOINT RightHandThumbEnd
                        {
                          OFFSET -3.183852 4e-06 1e-06
                          CHANNELS 3 Zrotation Yrotation Xrotation
                        }
                      }
                    }
                  }
                  JOINT RightHandIndex1
                  {
                    OFFSET -3.253266 -0.520057 2.282866
                    CHANNELS 3 Zrotation Yrotation Xrotation
                    JOINT RightHandIndex2
                    {
                      OFFSET -6.341917 0.012471 0.178266
                      CHANNELS 3 Zrotation Yrotation Xrotation
                      JOINT RightHandIndex3
                      {
                        OFFSET -3.654871 -8e-06 -0.0
                        CHANNELS 3 Zrotation Yrotation Xrotation
                        JOINT RightHandIndex4
                        {
                          OFFSET -2.327586 0.0 1e-06
                          CHANNELS 3 Zrotation Yrotation Xrotation
                          JOINT RightHandIndexEnd
                          {
                            OFFSET -2.76179 -0.180656 -0.113078
                            CHANNELS 3 Zrotation Yrotation Xrotation
                          }
                        }
                      }
                    }
                  }
                  JOINT RightHandMiddle1
                  {
                    OFFSET -3.168106 0.246593 1.00103
                    CHANNELS 3 Zrotation Yrotation Xrotation
                    JOINT RightHandMiddle2
                    {
                      OFFSET -6.180828 -0.258836 -1.000895
                      CHANNELS 3 Zrotation Yrotation Xrotation
                      JOINT RightHandMiddle3
                      {
                        OFFSET -4.348901 0.0 -0.0
                        CHANNELS 3 Zrotation Yrotation Xrotation
                        JOINT RightHandMiddle4
                        {
                          OFFSET -3.00024 -4e-06 -2e-06
                          CHANNELS 3 Zrotation Yrotation Xrotation
                          JOINT RightHandMiddleEnd
                          {
                            OFFSET -2.30252 -0.29437 -0.031706
                            CHANNELS 3 Zrotation Yrotation Xrotation
                          }
                        }
                      }
                    }
                  }
                  JOINT RightHandRing1
                  {
                    OFFSET -2.88569 -0.067952 -0.308858
                    CHANNELS 3 Zrotation Yrotation Xrotation
                    JOINT RightHandRing2
                    {
                      OFFSET -5.854198 -0.48613 -1.373731
                      CHANNELS 3 Zrotation Yrotation Xrotation
                      JOINT RightHandRing3
                      {
                        OFFSET -4.33881 -4e-06 -0.0
                        CHANNELS 3 Zrotation Yrotation Xrotation
                        JOINT RightHandRing4
                        {
                          OFFSET -2.654903 -4e-06 4e-06
                          CHANNELS 3 Zrotation Yrotation Xrotation
                          JOINT RightHandRingEnd
                          {
                            OFFSET -1.933568 0.077527 -5.2e-05
                            CHANNELS 3 Zrotation Yrotation Xrotation
                          }
                        }
                      }
                    }
                  }
                  JOINT RightHandPinky1
                  {
                    OFFSET -2.866425 -0.342796 -1.584145
                    CHANNELS 3 Zrotation Yrotation Xrotation
                    JOINT RightHandPinky2
                    {
                      OFFSET -5.091371 -1.332055 -1.772385
                      CHANNELS 3 Zrotation Yrotation Xrotation
                      JOINT RightHandPinky3
                      {
                        OFFSET -3.062664 -4e-06 1e-06
                        CHANNELS 3 Zrotation Yrotation Xrotation
                        JOINT RightHandPinky4
                        {
                          OFFSET -1.546529 4e-06 -2e-06
                          CHANNELS 3 Zrotation Yrotation Xrotation
                          JOINT RightHandPinkyEnd
                          {
                            OFFSET -1.945119 -0.157718 0.057211
                            CHANNELS 3 Zrotation Yrotation Xrotation
                          }
                        }
                      }
                    }
                  }
                }
              }
            }
          }
        }
      }
    }
    JOINT LeftLeg
    {
      OFFSET 10.043214 -8.434526 2.595655
      CHANNELS 3 Zrotation Yrotation Xrotation
      JOINT LeftShin
      {
        OFFSET -1e-06 -43.221752 -0.802913
        CHANNELS 3 Zrotation Yrotation Xrotation
        JOINT LeftFoot
        {
          OFFSET 1e-06 -42.155094 -3.481523
          CHANNELS 3 Zrotation Yrotation Xrotation
          JOINT LeftToeBase
          {
            OFFSET 0.0 -5.059472 13.231529
            CHANNELS 3 Zrotation Yrotation Xrotation
            JOINT LeftToeEnd
            {
              OFFSET -0.009607 -1.647619 6.513017
              CHANNELS 3 Zrotation Yrotation Xrotation
            }
          }
        }
      }
    }
    JOINT RightLeg
    {
      OFFSET -10.047278 -8.29526 2.620317
      CHANNELS 3 Zrotation Yrotation Xrotation
      JOINT RightShin
      {
        OFFSET 1e-06 -43.362206 -0.805556
        CHANNELS 3 Zrotation Yrotation Xrotation
        JOINT RightFoot
        {
          OFFSET 2e-06 -42.117393 -3.478398
          CHANNELS 3 Zrotation Yrotation Xrotation
          JOINT RightToeBase
          {
            OFFSET -0.0 -5.079609 13.284196
            CHANNELS 3 Zrotation Yrotation Xrotation
            JOINT RightToeEnd
            {
              OFFSET 0.009532 -1.634378 6.460591
              CHANNELS 3 Zrotation Yrotation Xrotation
            }
          }
        }
      }
    }
  }
}
MOTION
Frames: 5
Frame Time: 0.03333333333333333
0.0 0.0 0.0 0.0 -0.0 0.0 1.657733 99.173943 6.10289 1.216765 3.746018 -5.041319 0.221956 0.037585 0.144042 -0.375386 0.238662 -5.612647 -1.79363 -1.791128 11.632863 1.465058 1.338781 31.521507 -0.336926 0.164514 -3.996504 -1.453606 0.061852 -25.230001 7.7e-05 -2.2e-05 6e-06 0.022599 -0.127576 0.141697 0.532141 -3.899929 -10.565302 -0.489108 3.655571 -10.504165 -23.096588 -11.731513 20.662207 -54.161053 0.606269 1.725879 0.574291 -39.723412 -0.06646 13.9554 4.565512 9.045313 -5.882105 9.861284 0.702591 -10.936871 -0.360575 7.156208 -0.0 8.774824 -1e-06 -16.169884 17.969309 5.972527 -1.844034 2.498504 -2.507277 -10.163601 4.678945 4.621109 -20.976025 -4e-06 2e-06 -21.226286 2.451697 -3.594 0.0 -6e-06 -1e-06 -1.362682 2.240797 -0.746322 -21.334913 0.584909 3.008323 -13.821213 -3e-06 0.0 -23.887167 -0.249079 -0.839481 -60.515293 2.433275 -0.932011 -0.294024 1.679687 0.833256 -14.218208 0.093215 1.30058 -34.212051 -0.287563 0.967172 -20.033211 0.964538 1.212843 1e-06 0.0 -0.0 -3.440389 0.788233 0.501658 -15.928189 -3.167308 2.999707 -6.338826 -2e-06 1e-06 -18.123444 3.648183 -4.905668 -5e-06 -0.0 -2e-06 15.420438 18.942768 20.26577 63.240524 0.565517 4.949083 -0.324201 40.25 -0.248536 -6.236648 -2.320364 13.810696 2.243542 -5.255037 -3.180158 14.282893 -0.826595 6.952499 -3e-06 -12.690605 3e-06 15.934244 -17.651255 2.820045 1.665668 -1.955922 -2.878297 4.727799 -4.170589 4.993924 11.020528 3e-06 -1e-06 12.109055 -3.735716 -2.866786 0.0 0.0 1e-06 1.291986 -1.928549 -1.498091 14.800132 0.567467 3.865604 14.242577 -1.341734 -6.66066 19.631971 0.143928 -0.648248 49.795948 -0.583315 -6.364612 0.353029 -1.511151 -0.03194 20.222795 3.68431 2.316628 18.787273 6e-06 -3e-06 10.751629 -0.479868 1.397906 1e-06 2e-06 -0.0 3.273808 0.305947 -0.58011 21.48682 11.830378 2.266129 8.16293 1e-06 -2e-06 18.399088 -3.798985 -4.94058 3e-06 -1e-06 -3e-06 5.079312 6.107411 -1.530504 -0.072809 -0.081652 13.020568 -8.538453 3.016558 -5.179295 1.67071 -1.991495 0.852279 0.0 0.0 2e-06 -7.840724 -7.405736 3.423621 -0.034817 0.087178 12.284011 8.562752 -2.437357 -8.368392 -1.443808 1.066914 1.103884 -0.0 -0.0 -1e-06 
0.0 0.0 0.0 0.0 -0.0 0.0 1.689452 99.195053 6.201607 1.345336 3.632552 -5.000651 0.125888 -0.034431 0.053704 -0.356746 0.375368 -5.678747 -1.776052 -1.897947 11.637359 1.346216 1.412642 31.642321 -0.377579 0.259856 -3.972539 -1.389441 0.015579 -25.282965 7.7e-05 -2.2e-05 6e-06 0.017867 -0.113764 0.150652 0.510347 -3.885756 -10.545621 -0.476419 3.672407 -10.492979 -23.124653 -11.845523 20.731258 -54.588783 0.862702 1.308409 0.575341 -39.724339 -0.04194 14.27042 4.373189 8.62656 -5.88211 9.86129 0.70259 -10.936877 -0.360575 7.156209 0.0 8.77483 -0.0 -16.049662 18.168619 6.013558 -1.844035 2.498507 -2.507279 -10.163604 4.678948 4.62111 -20.976038 -3e-06 -1e-06 -21.226299 2.451698 -3.594 0.0 -6e-06 -1e-06 -1.362683 2.240799 -0.746322 -21.334925 0.58491 3.008323 -13.82122 -2e-06 0.0 -23.887182 -0.249079 -0.839487 -60.308018 2.600145 -1.157361 -0.294024 1.679688 0.833256 -14.218215 0.093215 1.300579 -34.212067 -0.287564 0.967169 -20.033222 0.964536 1.212842 0.0 1e-06 -2e-06 -3.44039 0.788234 0.501655 -15.928194 -3.16731 2.999705 -6.338829 -1e-06 1e-06 -18.123457 3.648183 -4.905674 -4e-06 -0.0 -2e-06 15.666224 18.976015 20.609959 63.498058 0.52353 4.819242 -0.534506 40.032558 -0.172922 -6.518657 -2.329386 13.398992 2.243543 -5.255037 -3.180157 14.282896 -0.826596 6.952499 -2e-06 -12.690607 1e-06 15.900397 -17.630861 2.811005 1.665668 -1.955921 -2.878298 4.7278 -4.170589 4.993924 11.020532 2e-06 -2e-06 12.109058 -3.735717 -2.866786 0.0 0.0 1e-06 1.291987 -1.928548 -1.498089 14.800134 0.567467 3.865604 14.242581 -1.341737 -6.660661 19.631981 0.143926 -0.648247 49.817299 -0.68504 -6.272258 0.353029 -1.511151 -0.03194 20.222801 3.684309 2.316627 18.787283 4e-06 -3e-06 10.751633 -0.47987 1.397905 1e-06 2e-06 -0.0 3.273808 0.305946 -0.580111 21.48682 11.830378 2.266131 8.16293 2e-06 -2e-06 18.399088 -3.798985 -4.94058 2e-06 -0.0 -2e-06 4.919377 6.312795 -1.300629 -0.076257 -0.077888 12.611836 -8.315757 3.022372 -5.113186 1.662776 -1.955953 0.832134 -0.0 0.0 2e-06 -8.036701 -7.556097 3.451888 0.007963 0.061906 12.190742 8.636065 -2.350936 -8.090588 -1.429504 1.107376 0.994631 0.0 0.0 -1e-06 
0.0 0.0 0.0 0.0 -0.0 0.0 1.731905 99.173019 6.275798 1.441042 3.666313 -4.897139 0.065241 -0.087525 -0.061411 -0.354279 0.443038 -5.742512 -1.765601 -2.022452 11.551314 1.271497 1.495692 31.915855 -0.380073 0.237951 -3.94304 -1.442149 0.036128 -25.378105 7.7e-05 -2.2e-05 6e-06 0.015341 -0.094331 0.155008 0.502827 -3.863524 -10.526464 -0.473679 3.690771 -10.484836 -23.080214 -12.009519 20.886105 -55.099842 1.081903 0.819134 0.727855 -39.683559 -0.179196 14.346615 4.109224 8.172512 -5.882108 9.861288 0.70259 -10.936873 -0.360575 7.156211 -1e-06 8.774827 -1e-06 -15.912691 18.308201 6.090543 -1.844033 2.498506 -2.507279 -10.163601 4.678947 4.621111 -20.976027 -1e-06 3e-06 -21.226288 2.451699 -3.594001 0.0 -6e-06 -0.0 -1.362682 2.240798 -0.746323 -21.334917 0.584913 3.008326 -13.821217 -1e-06 2e-06 -23.887175 -0.249076 -0.839483 -60.147316 2.664536 -1.272833 -0.294025 1.679688 0.833256 -14.218212 0.093216 1.300583 -34.212051 -0.287559 0.967172 -20.033215 0.964541 1.212845 0.0 1e-06 0.0 -3.44039 0.788234 0.501657 -15.928189 -3.167309 2.999709 -6.338827 0.0 2e-06 -18.123447 3.648185 -4.905669 -5e-06 0.0 -2e-06 15.94917 18.961805 20.994627 63.679153 0.371577 4.17248 -0.457225 40.068348 0.008925 -6.766181 -2.362134 13.198544 2.243543 -5.25504 -3.180161 14.2829 -0.826596 6.952508 -1e-06 -12.690612 -1e-06 15.838396 -17.59058 2.799613 1.665667 -1.955924 -2.878302 4.727804 -4.170592 4.993928 11.020535 2e-06 -0.0 12.10906 -3.735719 -2.866789 0.0 0.0 -0.0 1.291986 -1.928551 -1.498091 14.800139 0.567468 3.865612 14.242582 -1.341739 -6.66066 19.631979 0.143926 -0.648246 49.760754 -0.749502 -6.198581 0.353027 -1.511151 -0.031941 20.222803 3.68431 2.316629 18.787287 4e-06 -1e-06 10.751636 -0.479868 1.397906 1e-06 2e-06 1e-06 3.273809 0.305947 -0.580111 21.48683 11.830382 2.266136 8.162934 2e-06 -0.0 18.399096 -3.798988 -4.94058 2e-06 0.0 -2e-06 4.820861 6.673375 -1.418143 -0.097714 -0.095634 12.732405 -8.182074 2.844385 -5.226341 1.662151 -1.918719 0.906093 0.0 0.0 2e-06 -8.187582 -7.718143 3.230971 0.02788 0.047553 12.482205 8.619184 -2.239559 -7.911439 -1.417344 1.121367 0.970986 -0.0 0.0 -1e-06 
0.0 0.0 0.0 0.0 -0.0 0.0 1.777259 99.144539 6.331217 1.525853 3.716984 -4.767015 0.00444 -0.133036 -0.157926 -0.358114 0.467357 -5.802187 -1.753532 -2.155831 11.403631 1.2285 1.582403 32.36657 -0.395039 0.174347 -3.922771 -1.505508 0.028515 -25.626389 7.7e-05 -2.2e-05 6e-06 0.013695 -0.077442 0.157092 0.503024 -3.84173 -10.514147 -0.476911 3.703241 -10.480918 -23.068779 -12.21052 21.060642 -55.517181 1.317413 0.304084 0.88254 -39.567184 -0.339634 14.350614 3.779635 7.881249 -5.882106 9.861285 0.70259 -10.936875 -0.360577 7.156204 3e-06 8.774826 1e-06 -15.777745 18.360756 6.149375 -1.844032 2.498504 -2.507278 -10.163601 4.678944 4.621109 -20.97603 -9e-06 -1e-06 -21.226292 2.451692 -3.593999 0.0 -6e-06 -1e-06 -1.362682 2.240798 -0.746324 -21.334921 0.584904 3.008319 -13.821218 -6e-06 0.0 -23.887178 -0.249084 -0.839481 -60.032623 2.682278 -1.311828 -0.294025 1.679687 0.833256 -14.218212 0.093211 1.30058 -34.212063 -0.287573 0.967171 -20.03322 0.964531 1.212847 1e-06 1e-06 0.0 -3.440389 0.788232 0.501655 -15.928191 -3.167314 2.999704 -6.338827 -3e-06 -1e-06 -18.123453 3.648179 -4.905671 -5e-06 0.0 -2e-06 16.288074 18.997307 21.459362 63.759216 0.208568 3.396828 -0.459084 40.250809 0.102007 -6.911847 -2.456251 13.094083 2.243541 -5.255037 -3.180157 14.282896 -0.826592 6.952504 -6e-06 -12.690606 1e-06 15.769973 -17.538958 2.790854 1.665666 -1.95592 -2.878299 4.727799 -4.170587 4.993926 11.020529 6e-06 0.0 12.109056 -3.735713 -2.866785 0.0 -0.0 1e-06 1.291986 -1.928549 -1.498091 14.800138 0.567472 3.865609 14.242579 -1.341733 -6.660656 19.631975 0.14393 -0.648241 49.683128 -0.790025 -6.171212 0.35303 -1.511151 -0.03194 20.222801 3.684315 2.316631 18.787279 9e-06 2e-06 10.751633 -0.479868 1.397908 1e-06 2e-06 1e-06 3.273809 0.305948 -0.580112 21.486828 11.830382 2.266135 8.16293 3e-06 -0.0 18.399088 -3.798982 -4.940576 2e-06 0.0 -2e-06 4.812861 7.141122 -1.616383 -0.121553 -0.124583 12.957188 -8.182987 2.630617 -5.387749 1.663928 -1.899737 1.008002 0.0 -0.0 2e-06 -8.327259 -7.828267 2.935219 0.031776 0.051509 12.843969 8.576361 -2.115583 -7.735949 -1.409643 1.117288 0.970585 -0.0 -0.0 -1e-06 
0.0 0.0 0.0 0.0 -0.0 0.0 1.819002 99.129967 6.355373 1.592795 3.735936 -4.630243 -0.046945 -0.164737 -0.230762 -0.365274 0.458539 -5.862974 -1.724931 -2.277052 11.236104 1.164641 1.671393 32.916649 -0.426317 0.092108 -3.912385 -1.515078 -0.040589 -26.008549 7.7e-05 -2.2e-05 6e-06 0.01254 -0.067634 0.157952 0.504483 -3.827451 -10.504485 -0.480467 3.708356 -10.475986 -23.073793 -12.443331 21.264345 -55.867897 1.525345 -0.145119 1.015854 -39.390381 -0.468703 14.437832 3.460683 7.847258 -5.882109 9.861288 0.702591 -10.936877 -0.360574 7.156208 1e-06 8.774828 1e-06 -15.689658 18.377918 6.194591 -1.844033 2.498506 -2.507279 -10.163603 4.678946 4.621111 -20.97603 -4e-06 1e-06 -21.226294 2.451698 -3.594001 1e-06 -6e-06 -0.0 -1.362682 2.240798 -0.746322 -21.334921 0.584909 3.008324 -13.821218 -2e-06 2e-06 -23.88718 -0.249079 -0.839484 -59.95166 2.694383 -1.287679 -0.294025 1.679688 0.833256 -14.218214 0.093214 1.300581 -34.212063 -0.287563 0.967171 -20.033222 0.964535 1.212843 -0.0 0.0 0.0 -3.440389 0.788235 0.501657 -15.928191 -3.16731 2.999707 -6.338828 -1e-06 -0.0 -18.123453 3.648183 -4.905673 -4e-06 1e-06 -1e-06 16.604422 19.095409 21.912554 63.771114 0.023889 2.739501 -0.59454 40.54031 0.108749 -6.979636 -2.637504 12.891181 2.243542 -5.255038 -3.180159 14.282896 -0.826594 6.952506 -4e-06 -12.690607 -1e-06 15.742887 -17.501053 2.77475 1.665666 -1.955921 -2.878298 4.727799 -4.170588 4.993927 11.020529 4e-06 -0.0 12.109055 -3.735715 -2.866783 0.0 0.0 -0.0 1.291986 -1.92855 -1.498089 14.800132 0.56747 3.865608 14.242576 -1.341735 -6.660659 19.631973 0.143928 -0.648244 49.644222 -0.803904 -6.160396 0.353029 -1.511152 -0.031941 20.222801 3.684313 2.316633 18.787281 7e-06 -0.0 10.751631 -0.479869 1.397907 1e-06 2e-06 2e-06 3.273808 0.305947 -0.580112 21.486822 11.830381 2.266133 8.16293 3e-06 -0.0 18.399086 -3.798984 -4.940574 2e-06 0.0 -1e-06 4.761417 7.606289 -1.804393 -0.137815 -0.146764 13.091888 -8.125615 2.480824 -5.487864 1.666398 -1.889489 1.086053 -0.0 -0.0 2e-06 -8.430707 -7.875734 2.758617 0.025087 0.053238 13.096847 8.541179 -2.019443 -7.594957 -1.407894 1.111803 0.997732 -0.0 -0.0 -1e-06 
